<svg xmlns="http://www.w3.org/2000/svg" viewBox="0 0 741.3 175.7">
  <defs>
    <style>
      .a {
        fill: none;
        stroke: #fff;
        stroke-miterlimit: 10;
        stroke-width:10;
      }
    </style>
  </defs>
  <title>logo_tand</title>
  <g>
    <polygon class="a" points="0.5 1.1 140 1.1 137.5 72.6 103.5 69.6 97 174.6 43 174.6 37.5 68.6 0.5 70.6 0.5 1.1"/>
    <path class="a" d="M312.5,368s86-39,203.5-2.5c0,0-84-70.5-170-57Z" transform="translate(-154 -193.4)"/>
    <path class="a" d="M360.5,281.3L412,194.5,493.5,328S420.5,255.5,360.5,281.3Z" transform="translate(-154 -193.4)"/>
    <path class="a" d="M894.1,194.5s-86,39-203.5,2.5c0,0,84,70.5,170,57Z" transform="translate(-154 -193.4)"/>
    <path class="a" d="M846.1,281.3L794.6,368,713.1,234.5S786.1,307,846.1,281.3Z" transform="translate(-154 -193.4)"/>
    <polygon class="a" points="426 113.4 426 172.1 389 172.1 380.5 1.1 435.5 1.1 476 40.1 476 1.1 516 1.1 509 172.1 426 113.4"/>
  </g>
</svg>
